<svg width="134" height="18" viewBox="0 0 134 18" fill="none" xmlns="http://www.w3.org/2000/svg">
<path d="M125.826 17.9998C122.582 17.9998 120.631 16.0525 120.631 12.842V5.15785C120.631 1.94735 122.582 0 125.826 0H128.832C132.049 0 134 1.94735 134 5.15785V12.842C134 16.0525 132.049 17.9998 128.832 17.9998H125.826ZM123.637 12.8157C123.637 14.5262 124.56 15.4736 126.221 15.4736H128.41C130.071 15.4736 130.994 14.5262 130.994 12.8157V5.18417C130.994 3.44734 130.071 2.5263 128.41 2.5263H126.221C124.56 2.5263 123.637 3.44734 123.637 5.18417V12.8157Z" fill="black"/>
<path d="M114.959 17.9998V0H118.2V17.9998H114.959Z" fill="black"/>
<path fill-rule="evenodd" clip-rule="evenodd" d="M89.4362 12.8269C89.4362 16.0468 91.3665 17.9998 94.5488 17.9998C94.5488 17.9998 96.2022 18.0002 97.2616 17.9998C97.2635 17.9998 97.2648 17.9998 97.2664 17.9998H107.462C110.658 17.9998 112.528 16.041 112.528 12.7852V5.21466C112.528 1.95881 110.658 0 107.462 0H99.4266V12.8269C99.4266 14.5424 98.5136 15.4661 96.8442 15.4661H94.9661C93.2967 15.4661 92.4099 14.5424 92.4099 12.8269V0H89.4362V12.8269ZM102.526 15.4587H107.047C108.683 15.4587 109.567 14.5322 109.567 12.8381V5.16172C109.567 3.46762 108.683 2.54115 107.047 2.54115H102.526V15.4587Z" fill="black"/>
<path d="M79.631 17.9998V2.54115H74.8517V0H87.4106V2.54115H82.6579V17.9998H79.631Z" fill="black"/>
<path d="M66.5467 17.9998C63.1791 17.9998 61.4826 16.2367 61.4826 13.1578H64.2172C64.2172 14.6578 65.1287 15.5262 66.6733 15.5262H68.5723C69.9902 15.5262 70.8511 14.6841 70.8511 13.2894V12.3683C70.8511 10.921 69.9902 10.0789 68.5723 10.0789H66.0656C63.1791 10.0789 61.4826 8.31572 61.4826 5.34206V4.7368C61.4826 1.73683 63.1791 0 66.0656 0H68.9521C72.0159 0 73.5857 1.73683 73.5857 4.52628H70.8511C70.8511 3.2105 70.0915 2.44735 68.6989 2.44735H66.4454C65.0021 2.44735 64.2425 3.2105 64.2425 4.57891V5.31574C64.2425 6.71047 65.0021 7.49994 66.4454 7.49994H68.8508C71.9399 7.49994 73.6364 9.31571 73.6364 12.3683V13.1578C73.6364 16.2104 71.8893 17.9998 68.8508 17.9998H66.5467Z" fill="black"/>
<path d="M56.0646 17.9998V2.43527H53.4765V0H59.1483V17.9998H56.0646Z" fill="black"/>
<path d="M48.7723 17.9998V2.43527H46.1843V0H51.856V17.9998H48.7723Z" fill="black"/>
<path d="M31.1946 17.9998V0H43.3484V2.54115H34.26V7.57052H43.3484V10.0587H34.26V15.4587H43.3484V17.9998H31.1946Z" fill="black"/>
<path d="M14.9896 17.9998V0H17.8926V7.51758H25.4557V0H28.3588V17.9998H25.4557V10.0587H17.8926V17.9998H14.9896Z" fill="black"/>
<path d="M4.77928 17.9998V2.54115H0V0H12.5589V2.54115H7.80615V17.9998H4.77928Z" fill="black"/>
</svg>
