<svg width="377" height="50" viewBox="0 0 377 50" fill="none" xmlns="http://www.w3.org/2000/svg">
<path d="M354.002 49.9996C344.877 49.9996 339.387 44.5903 339.387 35.6722V14.3274C339.387 5.40931 344.877 0 354.002 0H362.459C371.51 0 377 5.40931 377 14.3274V35.6722C377 44.5903 371.51 49.9996 362.459 49.9996H354.002ZM347.844 35.5991C347.844 40.3505 350.441 42.9821 355.115 42.9821H361.272C365.946 42.9821 368.542 40.3505 368.542 35.5991V14.4005C368.542 9.57594 365.946 7.01749 361.272 7.01749H355.115C350.441 7.01749 347.844 9.57594 347.844 14.4005V35.5991Z" fill="black"/>
<path d="M323.43 49.9996V0H332.548V49.9996H323.43Z" fill="black"/>
<path fill-rule="evenodd" clip-rule="evenodd" d="M251.623 35.6302C251.623 44.5744 257.053 49.9996 266.007 49.9996C266.007 49.9996 270.658 50.0005 273.639 49.9996C273.644 49.9996 273.648 49.9996 273.652 49.9996L302.338 49.9996C311.328 49.9996 316.591 44.5584 316.591 35.5144V14.4852C316.591 5.44113 311.328 0 302.338 0H279.73V35.6302C279.73 40.3956 277.161 42.9615 272.465 42.9615H267.181C262.484 42.9615 259.989 40.3956 259.989 35.6302V0H251.623V35.6302ZM288.45 42.9408H301.168C305.773 42.9408 308.258 40.3673 308.258 35.6615V14.3381C308.258 9.63227 305.773 7.05876 301.168 7.05876H288.45V42.9408Z" fill="black"/>
<path d="M224.036 49.9996V7.05876H210.59V0H245.924V7.05876H232.552V49.9996H224.036Z" fill="black"/>
<path d="M187.224 49.9996C177.75 49.9996 172.977 45.102 172.977 36.5494H180.671C180.671 40.716 183.235 43.1283 187.581 43.1283H192.923C196.913 43.1283 199.335 40.7891 199.335 36.9149V34.3564C199.335 30.336 196.913 27.9968 192.923 27.9968H185.871C177.75 27.9968 172.977 23.0992 172.977 14.8391V13.1578C172.977 4.82451 177.75 0 185.871 0H193.992C202.612 0 207.028 4.82452 207.028 12.573H199.335C199.335 8.91806 197.198 6.79819 193.28 6.79819H186.94C182.879 6.79819 180.742 8.91806 180.742 12.7192V14.766C180.742 18.6402 182.879 20.8332 186.94 20.8332H193.707C202.398 20.8332 207.171 25.877 207.171 34.3564V36.5494C207.171 45.0289 202.255 49.9996 193.707 49.9996H187.224Z" fill="black"/>
<path d="M157.734 49.9996V6.76465H150.453V0H166.41V49.9996H157.734Z" fill="black"/>
<path d="M137.218 49.9996V6.76465H129.936V0H145.893V49.9996H137.218Z" fill="black"/>
<path d="M87.7639 49.9996V0H121.958V7.05876H96.388V21.0292H121.958V27.9409H96.388V42.9408H121.958V49.9996H87.7639Z" fill="black"/>
<path d="M42.1724 49.9996V0H50.3398V20.8822H71.6181V0H79.7855V49.9996H71.6181V27.9409H50.3398V49.9996H42.1724Z" fill="black"/>
<path d="M13.4462 49.9996V7.05876H0V0H35.3336V7.05876H21.9621V49.9996H13.4462Z" fill="black"/>
</svg>
