<svg width="163" height="100" viewBox="0 0 163 100" fill="none" xmlns="http://www.w3.org/2000/svg">
<path d="M114.622 100V0H62.1215V17.1998H83.1547V100H114.622Z" fill="#000"/>
<path d="M21.038 100H52.5V0H0V17.1998H21.038V100Z" fill="#000"/>
<path d="M129.203 93.9563C132.872 97.6339 137.586 99.5 143.244 99.5C148.703 99.5 153.339 97.6339 156.997 93.9563C160.655 90.2897 162.5 85.6845 162.5 80.25C162.5 74.6081 160.632 69.9812 156.963 66.5109C153.306 62.8552 148.692 61 143.244 61C137.597 61 132.872 62.8661 129.203 66.5437C125.745 70.0139 124 74.619 124 80.25C124 85.6409 125.734 90.2351 129.147 93.88L129.203 93.9563Z" fill="#000"/>
</svg>
