<svg width="782" height="415" viewBox="0 0 782 415" fill="none" xmlns="http://www.w3.org/2000/svg">
<path d="M693.85 414.999C658.875 414.999 637.833 394.204 637.833 359.921V277.866C637.833 243.583 658.875 222.789 693.85 222.789H726.267C760.958 222.789 782 243.583 782 277.866V359.921C782 394.204 760.958 414.999 726.267 414.999H693.85ZM670.249 359.64C670.249 377.905 680.201 388.022 698.116 388.022H721.717C739.631 388.022 749.584 377.905 749.584 359.64V278.147C749.584 259.601 739.631 249.766 721.717 249.766H698.116C680.201 249.766 670.249 259.601 670.249 278.147V359.64Z" fill="#FF4500"/>
<path d="M576.67 414.999V222.789H611.62V414.999H576.67Z" fill="#FF4500"/>
<path fill-rule="evenodd" clip-rule="evenodd" d="M301.441 359.759C301.441 394.143 322.257 414.999 356.573 414.999C356.573 414.999 374.403 415.002 385.827 414.999C385.847 414.999 385.862 414.999 385.879 414.999L495.827 414.999C530.287 414.999 550.458 394.082 550.458 359.314V278.473C550.458 243.706 530.287 222.789 495.827 222.789H409.174V359.759C409.174 378.079 399.329 387.943 381.326 387.943H361.074C343.072 387.943 333.508 378.079 333.508 359.759V222.789H301.441V359.759ZM442.597 387.863H491.345C508.995 387.863 518.52 377.97 518.52 359.88V277.908C518.52 259.817 508.995 249.924 491.345 249.924H442.597V387.863Z" fill="#FF4500"/>
<path d="M195.705 414.999V249.924H144.167V222.789H279.598V249.924H228.346V414.999H195.705Z" fill="#FF4500"/>
<path d="M54.6089 414.998C18.294 414.998 0 396.171 0 363.293H29.4888C29.4888 379.31 39.3184 388.584 55.9742 388.584H76.4525C91.743 388.584 101.027 379.591 101.027 364.698V354.863C101.027 339.407 91.743 330.415 76.4525 330.415H49.4211C18.294 330.415 0 311.587 0 279.833V273.37C0 241.335 18.294 222.789 49.4211 222.789H80.5482C113.587 222.789 130.515 241.335 130.515 271.122H101.027C101.027 257.072 92.8352 248.922 77.8177 248.922H53.5168C37.9532 248.922 29.7619 257.072 29.7619 271.684V279.552C29.7619 294.446 37.9532 302.876 53.5168 302.876H79.456C112.767 302.876 131.061 322.266 131.061 354.863V363.293C131.061 395.89 112.221 414.998 79.456 414.998H54.6089Z" fill="#FF4500"/>
<path d="M674.479 192.21V26.0049H646.57V0H707.732V192.21H674.479Z" fill="#FF4500"/>
<path d="M595.842 192.21V26.0049H567.933V0H629.095V192.21H595.842Z" fill="#FF4500"/>
<path d="M406.291 192.21V0H537.352V27.1355H439.346V80.8412H537.352V107.411H439.346V165.074H537.352V192.21H406.291Z" fill="#FF4500"/>
<path d="M231.542 192.21V0H262.847V80.2758H344.404V0H375.709V192.21H344.404V107.411H262.847V192.21H231.542Z" fill="#FF4500"/>
<path d="M121.437 192.21V27.1355H69.8994V0H205.33V27.1355H154.078V192.21H121.437Z" fill="#FF4500"/>
</svg>
