<svg width="184" height="97" viewBox="0 0 184 97" fill="none" xmlns="http://www.w3.org/2000/svg">
<path d="M163.259 96.9996C155.029 96.9996 150.078 92.1392 150.078 84.1261V64.9471C150.078 56.9339 155.029 52.0735 163.259 52.0735H170.886C179.049 52.0735 184 56.9339 184 64.9471V84.1261C184 92.1392 179.049 96.9996 170.886 96.9996H163.259ZM157.706 84.0604C157.706 88.3297 160.047 90.6942 164.262 90.6942H169.816C174.031 90.6942 176.373 88.3297 176.373 84.0604V65.0127C176.373 60.6778 174.031 58.3789 169.816 58.3789H164.262C160.047 58.3789 157.706 60.6778 157.706 65.0127V84.0604Z" fill="#FF4500"/>
<path d="M135.687 96.9996V52.0735H143.911V96.9996H135.687Z" fill="#FF4500"/>
<path fill-rule="evenodd" clip-rule="evenodd" d="M70.9274 84.0883C70.9274 92.1249 75.825 96.9996 83.8996 96.9996C83.8996 96.9996 88.0947 97.0005 90.7828 96.9996C90.7876 96.9996 90.791 96.9996 90.7951 96.9996L116.665 96.9996C124.773 96.9996 129.52 92.1106 129.52 83.9843V65.0889C129.52 56.9625 124.773 52.0735 116.665 52.0735H96.2762V84.0883C96.2762 88.3701 93.9597 90.6757 89.7238 90.6757H84.9585C80.7227 90.6757 78.4724 88.3701 78.4724 84.0883V52.0735H70.9274V84.0883ZM104.141 90.6571H115.611C119.763 90.6571 122.005 88.3447 122.005 84.1164V64.9567C122.005 60.7284 119.763 58.416 115.611 58.416H104.141V90.6571Z" fill="#FF4500"/>
<path d="M46.0484 96.9996V58.416H33.9218V52.0735H65.7877V58.416H53.7285V96.9996H46.0484Z" fill="#FF4500"/>
<path d="M12.8492 96.9996C4.30447 96.9996 0 92.599 0 84.9142H6.93855C6.93855 88.6581 9.2514 90.8256 13.1704 90.8256H17.9888C21.5866 90.8256 23.771 88.7238 23.771 85.2426V82.9438C23.771 79.3313 21.5866 77.2295 17.9888 77.2295H11.6285C4.30447 77.2295 0 72.8288 0 65.4068V63.8962C0 56.4085 4.30447 52.0735 11.6285 52.0735H18.9525C26.7263 52.0735 30.7095 56.4085 30.7095 63.3707H23.771C23.771 60.0866 21.8436 58.1819 18.3101 58.1819H12.5922C8.93017 58.1819 7.00279 60.0866 7.00279 63.5021V65.3411C7.00279 68.8223 8.93017 70.7927 12.5922 70.7927H18.6955C26.5335 70.7927 30.838 75.3247 30.838 82.9438V84.9142C30.838 92.5333 26.405 96.9996 18.6955 96.9996H12.8492Z" fill="#FF4500"/>
<path d="M158.701 44.9261V6.07824H152.134V0H166.525V44.9261H158.701Z" fill="#FF4500"/>
<path d="M140.198 44.9261V6.07824H133.631V0H148.022V44.9261H140.198Z" fill="#FF4500"/>
<path d="M95.5977 44.9261V0H126.436V6.34251H103.375V18.8954H126.436V25.1058H103.375V38.5836H126.436V44.9261H95.5977Z" fill="#FF4500"/>
<path d="M54.4804 44.9261V0H61.8463V18.7633H81.0363V0H88.4022V44.9261H81.0363V25.1058H61.8463V44.9261H54.4804Z" fill="#FF4500"/>
<path d="M28.5735 44.9261V6.34251H16.4469V0H48.3128V6.34251H36.2536V44.9261H28.5735Z" fill="#FF4500"/>
</svg>
