<svg width="218" height="116" viewBox="0 0 218 116" fill="none" xmlns="http://www.w3.org/2000/svg">
<path d="M192.946 115.411C183.22 115.411 177.369 109.628 177.369 100.094V77.2746C177.369 67.7405 183.22 61.9575 192.946 61.9575H201.96C211.607 61.9575 217.459 67.7405 217.459 77.2746V100.094C217.459 109.628 211.607 115.411 201.96 115.411H192.946ZM186.383 100.016C186.383 105.095 189.15 107.909 194.132 107.909H200.695C205.677 107.909 208.444 105.095 208.444 100.016V77.3528C208.444 72.195 205.677 69.4598 200.695 69.4598H194.132C189.15 69.4598 186.383 72.195 186.383 77.3528V100.016Z" fill="black"/>
<path d="M160.361 115.411V61.9575H170.079V115.411H160.361Z" fill="black"/>
<path fill-rule="evenodd" clip-rule="evenodd" d="M83.8248 100.049C83.8248 109.611 89.6131 115.411 99.1559 115.411C99.1559 115.411 104.114 115.412 107.291 115.411C107.296 115.411 107.3 115.411 107.305 115.411L137.88 115.411C147.462 115.411 153.071 109.594 153.071 99.9252V77.4433C153.071 67.7745 147.462 61.9575 137.88 61.9575H113.783V100.049C113.783 105.144 111.045 107.887 106.039 107.887H100.407C95.4014 107.887 92.7419 105.144 92.7419 100.049V61.9575H83.8248V100.049ZM123.077 107.865H136.633C141.541 107.865 144.19 105.113 144.19 100.082V77.2861C144.19 72.2552 141.541 69.5039 136.633 69.5039H123.077V107.865Z" fill="black"/>
<path d="M54.4218 115.411V69.5039H40.0901V61.9575H77.7505V69.5039H63.4985V115.411H54.4218Z" fill="black"/>
<path d="M15.1857 115.411C5.0872 115.411 0 110.175 0 101.032H8.20026C8.20026 105.486 10.9337 108.065 15.5653 108.065H21.2599C25.5119 108.065 28.0935 105.564 28.0935 101.422V98.6873C28.0935 94.3891 25.5119 91.8884 21.2599 91.8884H13.743C5.0872 91.8884 0 86.6524 0 77.8216V76.0242C0 67.1153 5.0872 61.9575 13.743 61.9575H22.3988C31.5862 61.9575 36.2937 67.1153 36.2937 75.3991H28.0935C28.0935 71.4916 25.8156 69.2253 21.6396 69.2253H14.8819C10.554 69.2253 8.27619 71.4916 8.27619 75.5553V77.7435C8.27619 81.8854 10.554 84.2298 14.8819 84.2298H22.0951C31.3584 84.2298 36.4456 89.6221 36.4456 98.6873V101.032C36.4456 110.097 31.2065 115.411 22.0951 115.411H15.1857Z" fill="black"/>
<path d="M187.559 53.4535V7.23195H179.798V0H196.806V53.4535H187.559Z" fill="black"/>
<path d="M165.692 53.4535V7.23195H157.931V0H174.939V53.4535H165.692Z" fill="black"/>
<path d="M112.981 53.4535V0H149.427V7.54638H122.173V22.4819H149.427V29.8711H122.173V45.9071H149.427V53.4535H112.981Z" fill="black"/>
<path d="M64.3872 53.4535V0H73.0925V22.3247H95.7721V0H104.477V53.4535H95.7721V29.8711H73.0925V53.4535H64.3872Z" fill="black"/>
<path d="M33.7693 53.4535V7.54638H19.4376V0H57.0981V7.54638H42.846V53.4535H33.7693Z" fill="black"/>
</svg>
