<svg width="847" height="411" viewBox="0 0 847 411" fill="none" xmlns="http://www.w3.org/2000/svg">
<path d="M787.508 216H755.368C718.499 216 695.611 238.088 695.611 273.642V353.357C695.611 388.912 718.499 411 755.368 411H787.508C824.19 411 847 388.912 847 353.357V273.642C847 238.073 824.205 216 787.508 216ZM806.419 353.067C806.419 368.613 798.539 376.515 782.999 376.515H759.596C744.056 376.515 736.177 368.628 736.177 353.067V273.902C736.177 258.357 744.056 250.454 759.596 250.454H782.999C798.539 250.454 806.419 258.341 806.419 273.902V353.067Z" fill="#BD3900"/>
<path d="M663.731 216H620.653V410.985H663.731V216Z" fill="#BD3900"/>
<path d="M529.777 216H439.627V353.189C439.627 368.613 431.748 376.439 416.224 376.439H396.144C380.588 376.439 373.036 368.827 373.036 353.189V216H332.814V353.189C332.814 388.836 355.375 410.985 391.697 410.985C391.697 410.985 399.56 410.985 408.173 410.985H529.793C547.673 410.985 562.511 405.589 572.715 395.363C582.825 385.198 588.177 370.478 588.177 352.761V274.223C588.177 256.507 582.825 241.787 572.715 231.622C562.495 221.396 547.658 216 529.777 216ZM548.063 353.296C548.063 368.597 540.403 376.347 525.331 376.347H481.207V250.607H525.331C540.418 250.607 548.063 258.357 548.063 273.658V353.296Z" fill="#BD3900"/>
<path d="M157.912 250.622H209.009V410.985H249.809V250.622H300.626V216H157.912V250.622Z" fill="#BD3900"/>
<path d="M83.0043 293.804H57.2917C44.4666 293.804 37.9448 287.583 37.9448 275.278V267.635C37.9448 255.529 44.2638 249.659 57.2917 249.659H81.3817C93.8636 249.659 100.167 255.514 100.167 267.085V271.212H137.846V267.085C137.846 234.618 118.25 216 84.0809 216H53.2195C19.893 216 0 235.917 0 269.271V275.553C0 308.907 19.893 328.824 53.2195 328.824H80.0243C93.021 328.824 100.167 335.794 100.167 348.436V357.989C100.167 370.111 92.8338 377.066 80.0243 377.066H59.7101C45.4964 377.066 37.664 369.805 37.664 356.629V352.502H0V356.629C0 391.694 20.7199 410.985 58.3683 410.985H83.0043C117.673 410.985 138.377 390.655 138.377 356.629V348.436C138.377 331.682 133.4 317.849 123.976 308.418C114.287 298.726 100.495 293.804 83.0043 293.804Z" fill="#BD3900"/>
<path d="M496.174 160.038H399.145V112.382H496.174V78.3792H399.145V34.5521H496.174V0H358V194.59H496.174V160.038Z" fill="#BD3900"/>
<path d="M214.416 112.382H286.752V194.59H326.168V0H286.752V77.83H214.416V0H175V194.59H214.416V112.382Z" fill="#BD3900"/>
<path d="M51.0384 194.59H91.7631V34.5521H142.505V0H0V34.5521H51.0384V194.59Z" fill="#BD3900"/>
<path d="M563.264 195H616V0H528V33.5395H563.264V195Z" fill="#BD3900"/>
<path d="M683.264 195H736V0H648V33.5395H683.264V195Z" fill="#BD3900"/>
<path d="M778.676 183.47C786.204 191.016 795.877 194.845 807.489 194.845C818.69 194.845 828.202 191.016 835.708 183.47C843.213 175.946 847 166.496 847 155.345C847 143.768 843.168 134.274 835.639 127.153C828.134 119.652 818.667 115.845 807.489 115.845C795.9 115.845 786.204 119.674 778.676 127.22C771.582 134.341 768 143.791 768 155.345C768 166.407 771.559 175.834 778.562 183.313L778.676 183.47Z" fill="#BD3900"/>
</svg>
