<svg width="1280" height="146" viewBox="0 0 1280 146" fill="none" xmlns="http://www.w3.org/2000/svg">
<path d="M367.88 119.246H295.939V83.9123H367.88V58.7015H295.939V26.2067H367.88V0.588623H265.433V144.864H367.88V119.246Z" fill="#BD3900"/>
<path d="M158.975 83.9123H212.607V144.864H241.831V0.588623H212.607V58.2943H158.975V0.588623H129.751V144.864H158.975V83.9123Z" fill="#BD3900"/>
<path d="M37.8415 144.864H68.0361V26.2067H105.658V0.588623H0V26.2067H37.8415V144.864Z" fill="#BD3900"/>
<path d="M417.622 145.168H453.756V0.588623H391.476V25.4559H417.622V145.168Z" fill="#BD3900"/>
<path d="M502.145 145.168H538.28V0.588623H475.999V25.4559H502.145V145.168Z" fill="#BD3900"/>
<path d="M577.335 136.619C582.917 142.214 590.089 145.053 598.698 145.053C607.003 145.053 614.056 142.214 619.62 136.619C625.185 131.04 627.993 124.034 627.993 115.766C627.993 107.183 625.151 100.143 619.57 94.8639C614.005 89.3021 606.986 86.4797 598.698 86.4797C590.105 86.4797 582.917 89.3187 577.335 94.9137C572.075 100.193 569.42 107.199 569.42 115.766C569.42 123.968 572.058 130.957 577.251 136.503L577.335 136.619Z" fill="#BD3900"/>
<path d="M1235.89 0.588623H1212.06C1184.73 0.588623 1167.76 16.9653 1167.76 43.3266V102.43C1167.76 128.791 1184.73 145.168 1212.06 145.168H1235.89C1263.09 145.168 1280 128.791 1280 102.43V43.3266C1280 16.9539 1263.1 0.588623 1235.89 0.588623ZM1249.91 102.215C1249.91 113.741 1244.07 119.6 1232.55 119.6H1215.2C1203.67 119.6 1197.83 113.752 1197.83 102.215V43.5193C1197.83 31.9933 1203.67 26.1339 1215.2 26.1339H1232.55C1244.07 26.1339 1249.91 31.9819 1249.91 43.5193V102.215Z" fill="#BD3900"/>
<path d="M1144.09 0.588623H1112.15V145.157H1144.09V0.588623Z" fill="#BD3900"/>
<path d="M1044.65 0.588623H977.81V102.305C977.81 113.741 971.968 119.543 960.458 119.543H945.57C934.037 119.543 928.438 113.899 928.438 102.305V0.588623H898.615V102.305C898.615 128.735 915.343 145.157 942.273 145.157C942.273 145.157 948.103 145.157 954.489 145.157H1044.66C1057.92 145.157 1068.92 141.156 1076.49 133.574C1083.98 126.037 1087.95 115.123 1087.95 101.988V43.7573C1087.95 30.6219 1083.98 19.7079 1076.49 12.1713C1068.91 4.58929 1057.91 0.588623 1044.65 0.588623ZM1058.21 102.385C1058.21 113.729 1052.53 119.475 1041.35 119.475H1008.64V26.2473H1041.35C1052.54 26.2473 1058.21 31.9933 1058.21 43.3379V102.385Z" fill="#BD3900"/>
<path d="M768.799 26.2586H806.685V145.157H836.935V26.2586H874.612V0.588623H768.799V26.2586Z" fill="#BD3900"/>
<path d="M713.261 58.2753H694.196C684.687 58.2753 679.852 53.6626 679.852 44.5393V38.8726C679.852 29.8966 684.537 25.5446 694.196 25.5446H712.057C721.312 25.5446 725.985 29.8853 725.985 38.4646V41.5246H753.922V38.4646C753.922 14.3926 739.393 0.588623 714.059 0.588623H691.177C666.468 0.588623 651.719 15.356 651.719 40.0853V44.7433C651.719 69.4726 666.468 84.2399 691.177 84.2399H711.051C720.687 84.2399 725.985 89.4079 725.985 98.7806V105.864C725.985 114.851 720.548 120.008 711.051 120.008H695.989C685.451 120.008 679.644 114.625 679.644 104.855V101.795H651.719V104.855C651.719 130.854 667.081 145.157 694.995 145.157H713.261C738.965 145.157 754.316 130.083 754.316 104.855V98.7806C754.316 86.3592 750.625 76.1026 743.638 69.1099C736.455 61.9246 726.228 58.2753 713.261 58.2753Z" fill="#BD3900"/>
</svg>
